<?xml version="1.0" standalone="no"?>
<!DOCTYPE svg PUBLIC "-//W3C//DTD SVG 20010904//EN"
 "http://www.w3.org/TR/2001/REC-SVG-20010904/DTD/svg10.dtd">
<svg version="1.0" xmlns="http://www.w3.org/2000/svg"
 width="700.000000pt" height="700.000000pt" viewBox="0 0 700.000000 700.000000"
 preserveAspectRatio="xMidYMid meet">
<metadata>
Created by potrace 1.11, written by Peter Selinger 2001-2013
</metadata>
<g transform="translate(0.000000,700.000000) scale(0.100000,-0.100000)"
fill="#000000" stroke="none">
<path d="M3300 6994 c-378 -33 -604 -76 -900 -174 -392 -129 -754 -325 -1090
-591 -130 -102 -430 -402 -532 -529 -863 -1087 -1020 -2531 -407 -3760 300
-601 752 -1090 1327 -1437 930 -561 2075 -656 3087 -256 803 317 1456 917
1843 1693 397 794 477 1686 228 2546 -101 349 -296 753 -508 1047 -161 224
-453 534 -648 689 -539 427 -1151 681 -1830 758 -99 11 -492 21 -570 14z
m1592 -2195 c133 -28 245 -114 303 -232 64 -132 64 -263 0 -392 -32 -66 -92
-128 -957 -992 -888 -887 -926 -923 -993 -954 -126 -58 -283 -51 -405 19 -27
15 -238 218 -526 506 -433 433 -485 487 -513 546 -117 245 6 531 263 612 90
29 219 22 306 -17 59 -26 94 -58 378 -339 l312 -310 743 740 c675 674 748 744
807 773 100 48 185 60 282 40z"/>
</g>
</svg>
